<?xml version="1.0" encoding="UTF-8"?> <!-- Generator: Adobe Illustrator 24.0.2, SVG Export Plug-In . SVG Version: 6.00 Build 0) --> <svg xmlns="http://www.w3.org/2000/svg" xmlns:xlink="http://www.w3.org/1999/xlink" id="Слой_1" x="0px" y="0px" viewBox="0 0 200 100" style="enable-background:new 0 0 200 100;" xml:space="preserve"> <style type="text/css"> .st0{fill:#092A49;} .st1{fill:#F9A935;} </style> <g> <path class="st0" d="M32.42,25.48c0,0-7.09-2.92-7.72-3.55c0,0-10.84,6.67-21.69,6.05c0,0-0.42,12.51,0.63,17.31 c0,0,1.88,12.72,11.05,20.44l8.13-3.75c0,0-12.3-6.05-11.68-26.69C11.15,35.28,23.25,34.03,32.42,25.48z"></path> <path class="st1" d="M27,32.36c0,0,5.84-3.13,7.51-5.84c0,0,5.63,2.09,11.89,1.88v10.01c0,0,2.09,24.19-21.27,33.78 c0,0-3.34-0.42-8.76-4.59c0,0,18.98-5.63,21.48-22.94c0,0,0.42-2.5,0.42-8.97C38.26,35.7,32,34.86,27,32.36z"></path> </g> <g> <g> <path class="st0" d="M61.17,54.29c-0.38-0.38-0.56-0.9-0.56-1.57V34.11c0-1.5,0.32-2.84,0.97-4.02c0.64-1.18,1.55-2.09,2.73-2.73 c1.18-0.64,2.53-0.97,4.06-0.97h4.67c0.21,0,0.39,0.07,0.52,0.2c0.13,0.13,0.2,0.3,0.2,0.48v3.22c0,0.19-0.07,0.36-0.2,0.5 c-0.13,0.15-0.31,0.22-0.52,0.22h-4.67c-0.83,0-1.5,0.28-1.99,0.84c-0.5,0.56-0.74,1.31-0.74,2.25v3.5h2.29 c2.28,0,4.01,0.74,5.21,2.21c1.19,1.47,1.79,3.35,1.79,5.63v1.61c0,2.52-0.58,4.45-1.75,5.79c-1.17,1.34-2.92,2.01-5.25,2.01 h-5.19C62.07,54.86,61.54,54.67,61.17,54.29z M67.56,50.23c0.72,0,1.29-0.28,1.69-0.84c0.4-0.56,0.6-1.34,0.6-2.33v-1.61 c0-0.99-0.2-1.78-0.6-2.35c-0.4-0.58-0.97-0.86-1.69-0.86h-1.93v8H67.56z"></path> <path class="st0" d="M82.3,52.77c-1.33-1.39-1.99-3.22-1.99-5.47V33.9c0-2.23,0.66-4.03,1.99-5.43c1.33-1.39,3.08-2.09,5.25-2.09 h4.22c0.48,0,0.72,0.23,0.72,0.68v3.22c0,0.48-0.24,0.72-0.72,0.72h-3.62c-0.86,0-1.54,0.27-2.03,0.82 c-0.5,0.55-0.74,1.29-0.74,2.23v4.18h5.39c0.48,0,0.72,0.24,0.72,0.72v3.06c0,0.48-0.24,0.72-0.72,0.72h-5.39v4.42 c0,0.94,0.25,1.68,0.74,2.23c0.5,0.55,1.17,0.82,2.03,0.82h3.62c0.48,0,0.72,0.23,0.72,0.68v3.26c0,0.46-0.24,0.68-0.72,0.68 h-4.22C85.38,54.86,83.63,54.16,82.3,52.77z"></path> <path class="st0" d="M108.34,26.55h3.62c0.46,0,0.68,0.23,0.68,0.68v26.74c0,0.48-0.23,0.72-0.68,0.72h-3.62 c-0.46,0-0.68-0.24-0.68-0.72V42.79h-4.06v11.18c0,0.48-0.24,0.72-0.72,0.72h-3.58c-0.48,0-0.72-0.24-0.72-0.72V27.23 c0-0.46,0.24-0.68,0.72-0.68h3.58c0.48,0,0.72,0.23,0.72,0.68v10.94h4.06V27.23C107.66,26.77,107.88,26.55,108.34,26.55z"></path> <path class="st0" d="M133.72,46.85c-0.08,2.6-0.76,4.64-2.03,6.11s-2.98,2.21-5.13,2.21c-2.17,0-3.92-0.7-5.25-2.09 s-1.99-3.22-1.99-5.47v-14c0-2.28,0.66-4.11,1.99-5.49s3.08-2.07,5.25-2.07c2.06,0,3.73,0.72,4.99,2.15 c1.26,1.43,1.93,3.38,2.01,5.85c0,0.48-0.23,0.72-0.68,0.72h-3.66c-0.21,0-0.38-0.06-0.5-0.18c-0.12-0.12-0.18-0.29-0.18-0.5 c-0.03-1.1-0.23-1.92-0.6-2.47c-0.38-0.55-0.87-0.82-1.49-0.82c-0.64,0-1.15,0.21-1.51,0.64c-0.36,0.43-0.54,1.03-0.54,1.81v5.11 h5.15c0.21,0,0.39,0.07,0.52,0.2c0.13,0.13,0.2,0.31,0.2,0.52v2.65c0,0.46-0.24,0.68-0.72,0.68h-5.15v5.55 c0,0.78,0.18,1.38,0.54,1.81c0.36,0.43,0.87,0.64,1.51,0.64c0.67,0,1.21-0.31,1.61-0.95c0.4-0.63,0.62-1.53,0.64-2.71 c0.05-0.46,0.28-0.68,0.68-0.68h3.66C133.54,46.09,133.77,46.35,133.72,46.85z"></path> <path class="st0" d="M147.79,56.67c-0.13-0.13-0.2-0.31-0.2-0.52v-3.3h-1.61c-2.25,0-4.04-0.72-5.37-2.15s-1.99-3.36-1.99-5.77 v-9.09c0-2.39,0.66-4.29,1.99-5.71c1.33-1.42,3.12-2.13,5.37-2.13h1.61v-2.77c0-0.21,0.07-0.39,0.2-0.52 c0.13-0.13,0.31-0.2,0.52-0.2h3.54c0.21,0,0.38,0.07,0.5,0.2c0.12,0.13,0.18,0.31,0.18,0.52v2.77h1.61c2.25,0,4.04,0.71,5.37,2.13 c1.33,1.42,1.99,3.32,1.99,5.71v9.09c0,2.41-0.66,4.34-1.99,5.77s-3.12,2.15-5.37,2.15h-1.61v3.3c0,0.21-0.06,0.39-0.18,0.52 c-0.12,0.13-0.29,0.2-0.5,0.2h-3.54C148.1,56.87,147.93,56.8,147.79,56.67z M147.59,48.18V32.62h-1.33 c-0.83,0-1.47,0.26-1.93,0.76c-0.46,0.51-0.68,1.23-0.68,2.17v9.73c0,0.91,0.23,1.62,0.68,2.13c0.46,0.51,1.1,0.76,1.93,0.76 H147.59z M153.87,48.18c0.86,0,1.51-0.25,1.97-0.76c0.46-0.51,0.68-1.22,0.68-2.13v-9.73c0-0.94-0.23-1.66-0.68-2.17 c-0.46-0.51-1.11-0.76-1.97-0.76h-1.33v15.56H153.87z"></path> <path class="st0" d="M168.42,26.55H172c0.48,0,0.72,0.23,0.72,0.68v26.74c0,0.48-0.24,0.72-0.72,0.72h-3.58 c-0.48,0-0.72-0.24-0.72-0.72V27.23C167.7,26.77,167.94,26.55,168.42,26.55z"></path> <path class="st0" d="M192.19,27.23v3.26c0,0.46-0.24,0.68-0.72,0.68h-3.82v22.8c0,0.48-0.23,0.72-0.68,0.72h-3.62 c-0.46,0-0.68-0.24-0.68-0.72v-22.8h-3.86c-0.46,0-0.68-0.23-0.68-0.68v-3.26c0-0.46,0.23-0.68,0.68-0.68h12.67 C191.95,26.55,192.19,26.77,192.19,27.23z"></path> </g> </g> <g> <path d="M60.79,68.08c-0.28-0.29-0.42-0.67-0.42-1.12V64.9c0-0.46,0.14-0.84,0.41-1.14s0.63-0.45,1.07-0.45 c0.42,0,0.77,0.13,1.04,0.39c0.27,0.26,0.41,0.6,0.43,1.02c0,0.06-0.03,0.09-0.08,0.09h-0.28c-0.05,0-0.08-0.03-0.08-0.09 c-0.02-0.29-0.12-0.53-0.31-0.71c-0.18-0.18-0.42-0.27-0.72-0.27c-0.32,0-0.56,0.11-0.75,0.32c-0.18,0.21-0.28,0.49-0.28,0.84v2.06 c0,0.33,0.09,0.61,0.28,0.81s0.44,0.31,0.76,0.31c0.3,0,0.55-0.1,0.74-0.3c0.19-0.2,0.29-0.47,0.31-0.79 c0-0.05,0.03-0.08,0.09-0.08h0.27c0.06,0,0.09,0.03,0.09,0.08c-0.03,0.45-0.18,0.82-0.45,1.1s-0.62,0.43-1.05,0.43 C61.43,68.52,61.06,68.37,60.79,68.08z"></path> <path d="M65.8,68.34v-4.51h-1.14c-0.05,0-0.08-0.03-0.08-0.09v-0.26c0-0.05,0.03-0.08,0.08-0.08h2.72c0.05,0,0.08,0.03,0.08,0.08 v0.26c0,0.06-0.03,0.09-0.08,0.09h-1.15v4.51c0,0.05-0.03,0.08-0.08,0.08h-0.28C65.83,68.42,65.8,68.4,65.8,68.34z"></path> <path d="M71.58,63.75c0.28,0.29,0.42,0.67,0.42,1.12v2.09c0,0.29-0.06,0.55-0.19,0.79c-0.12,0.24-0.3,0.43-0.52,0.56 c-0.22,0.14-0.47,0.21-0.73,0.21c-0.48,0-0.85-0.2-1.12-0.59v2.43c0,0.05-0.03,0.08-0.09,0.08h-0.27c-0.06,0-0.09-0.03-0.09-0.08 v-5.49c0-0.45,0.14-0.82,0.42-1.12c0.28-0.29,0.64-0.44,1.09-0.44C70.94,63.31,71.3,63.46,71.58,63.75z M71.56,64.87 c0-0.33-0.1-0.6-0.29-0.81c-0.19-0.21-0.45-0.32-0.76-0.32c-0.32,0-0.57,0.11-0.76,0.32s-0.29,0.48-0.29,0.81v2.09 c0,0.33,0.1,0.6,0.29,0.81c0.19,0.21,0.45,0.32,0.76,0.32c0.31,0,0.57-0.11,0.76-0.32c0.19-0.21,0.29-0.48,0.29-0.81V64.87z"></path> <path d="M74.1,68.08c-0.28-0.29-0.42-0.66-0.42-1.13c0-0.42,0.14-0.76,0.42-1.03c0.28-0.27,0.66-0.4,1.13-0.4h1.01v-0.66 c0-0.34-0.09-0.61-0.27-0.81c-0.18-0.2-0.43-0.3-0.74-0.3c-0.29,0-0.53,0.09-0.71,0.27c-0.18,0.18-0.28,0.41-0.3,0.71 c-0.01,0.06-0.04,0.09-0.09,0.09h-0.27c-0.03,0-0.05-0.01-0.07-0.03s-0.02-0.04-0.02-0.07c0.03-0.42,0.17-0.75,0.43-1.02 c0.26-0.26,0.6-0.39,1.03-0.39c0.44,0,0.8,0.14,1.07,0.43c0.27,0.29,0.4,0.66,0.4,1.12v2.09c0,0.46-0.13,0.84-0.4,1.13 s-0.62,0.43-1.07,0.43C74.75,68.5,74.38,68.36,74.1,68.08z M75.96,67.78c0.18-0.2,0.27-0.48,0.27-0.83v-1.01h-1.01 c-0.34,0-0.61,0.09-0.8,0.28c-0.19,0.18-0.29,0.43-0.29,0.73c0,0.35,0.1,0.63,0.29,0.83s0.46,0.31,0.8,0.31 C75.53,68.08,75.78,67.98,75.96,67.78z"></path> <path d="M78.48,68.34v-1.1c0-0.3,0.07-0.57,0.22-0.8c0.14-0.23,0.34-0.42,0.6-0.54c-0.25-0.11-0.45-0.29-0.6-0.52 c-0.14-0.24-0.22-0.51-0.22-0.81v-1.09c0-0.05,0.03-0.08,0.09-0.08h0.28c0.05,0,0.08,0.03,0.08,0.08v1.09 c0,0.33,0.09,0.61,0.28,0.81c0.19,0.21,0.43,0.31,0.72,0.31c0.31,0,0.55-0.1,0.74-0.31c0.18-0.21,0.28-0.48,0.28-0.81v-1.09 c0-0.05,0.03-0.08,0.08-0.08h0.28c0.05,0,0.08,0.03,0.08,0.08v1.09c0,0.31-0.07,0.58-0.21,0.81c-0.14,0.23-0.34,0.41-0.59,0.52 c0.25,0.13,0.45,0.31,0.59,0.54s0.21,0.5,0.21,0.8v1.1c0,0.05-0.03,0.08-0.08,0.08h-0.28c-0.05,0-0.08-0.03-0.08-0.08v-1.1 c0-0.33-0.1-0.6-0.29-0.81c-0.19-0.21-0.43-0.32-0.73-0.32c-0.3,0-0.54,0.1-0.73,0.31c-0.18,0.21-0.28,0.48-0.28,0.81v1.1 c0,0.05-0.03,0.08-0.08,0.08h-0.28C78.51,68.42,78.48,68.4,78.48,68.34z"></path> <path d="M83.61,68.07c-0.28-0.29-0.42-0.67-0.42-1.12v-2.09c0-0.45,0.14-0.82,0.42-1.12c0.28-0.29,0.64-0.44,1.09-0.44 c0.46,0,0.82,0.15,1.1,0.44s0.41,0.67,0.41,1.12v2.09c0,0.45-0.14,0.82-0.41,1.12s-0.64,0.44-1.1,0.44 C84.25,68.52,83.89,68.37,83.61,68.07z M85.47,67.78c0.19-0.21,0.28-0.48,0.28-0.82v-2.09c0-0.33-0.09-0.61-0.28-0.82 c-0.19-0.21-0.45-0.32-0.77-0.32c-0.32,0-0.58,0.11-0.77,0.32c-0.19,0.21-0.29,0.48-0.29,0.82v2.09c0,0.33,0.1,0.61,0.29,0.82 c0.19,0.21,0.45,0.32,0.77,0.32C85.03,68.09,85.29,67.99,85.47,67.78z"></path> <path d="M90.87,66.18c0.16,0.22,0.24,0.48,0.24,0.78c0,0.42-0.15,0.77-0.45,1.05s-0.69,0.41-1.16,0.41h-1.04 c-0.25,0-0.37-0.12-0.37-0.37v-3.37c0-0.42,0.12-0.75,0.37-1c0.25-0.25,0.58-0.38,1.01-0.38s0.76,0.12,1.02,0.37 c0.25,0.25,0.38,0.57,0.38,0.96c0,0.25-0.06,0.47-0.18,0.66s-0.29,0.32-0.5,0.42C90.48,65.8,90.71,65.96,90.87,66.18z M88.55,65.52 h0.9c0.31,0,0.56-0.08,0.72-0.25c0.17-0.17,0.25-0.38,0.25-0.63c0-0.28-0.08-0.49-0.25-0.65c-0.17-0.16-0.4-0.24-0.7-0.24 s-0.53,0.08-0.69,0.25c-0.16,0.16-0.24,0.4-0.24,0.7V65.52z M90.36,67.71c0.21-0.19,0.32-0.44,0.32-0.74c0-0.29-0.1-0.54-0.31-0.73 c-0.2-0.19-0.48-0.29-0.83-0.29h-0.99v2.04h0.96C89.86,67.99,90.14,67.9,90.36,67.71z"></path> <path d="M93.18,68.08c-0.28-0.29-0.42-0.66-0.42-1.13c0-0.42,0.14-0.76,0.42-1.03c0.28-0.27,0.66-0.4,1.13-0.4h1.01v-0.66 c0-0.34-0.09-0.61-0.27-0.81c-0.18-0.2-0.43-0.3-0.74-0.3c-0.29,0-0.53,0.09-0.71,0.27c-0.18,0.18-0.28,0.41-0.3,0.71 c-0.01,0.06-0.04,0.09-0.09,0.09h-0.27c-0.03,0-0.05-0.01-0.07-0.03s-0.02-0.04-0.02-0.07c0.03-0.42,0.17-0.75,0.43-1.02 c0.26-0.26,0.6-0.39,1.03-0.39c0.44,0,0.8,0.14,1.07,0.43c0.27,0.29,0.4,0.66,0.4,1.12v2.09c0,0.46-0.13,0.84-0.4,1.13 s-0.62,0.43-1.07,0.43C93.83,68.5,93.46,68.36,93.18,68.08z M95.05,67.78c0.18-0.2,0.27-0.48,0.27-0.83v-1.01h-1.01 c-0.34,0-0.61,0.09-0.8,0.28c-0.19,0.18-0.29,0.43-0.29,0.73c0,0.35,0.1,0.63,0.29,0.83s0.46,0.31,0.8,0.31 C94.62,68.08,94.86,67.98,95.05,67.78z"></path> <path d="M103.47,66.11c0.22,0.25,0.33,0.57,0.33,0.96v1.28c0,0.05-0.03,0.08-0.08,0.08h-0.28c-0.05,0-0.08-0.03-0.08-0.08v-1.28 c0-0.32-0.1-0.58-0.29-0.76s-0.45-0.28-0.77-0.28h-0.9v2.32c0,0.05-0.03,0.08-0.08,0.08h-0.28c-0.05,0-0.08-0.03-0.08-0.08v-4.87 c0-0.05,0.03-0.08,0.08-0.08h0.28c0.05,0,0.08,0.03,0.08,0.08v2.11h0.72l1.26-2.13c0.02-0.04,0.05-0.06,0.1-0.06h0.32 c0.03,0,0.05,0.01,0.07,0.03c0.01,0.02,0.01,0.04-0.01,0.07l-1.28,2.14C102.96,65.7,103.25,65.86,103.47,66.11z"></path> <path d="M105.91,68.07c-0.28-0.29-0.42-0.67-0.42-1.12v-2.09c0-0.45,0.14-0.82,0.42-1.12c0.28-0.29,0.64-0.44,1.09-0.44 c0.46,0,0.82,0.15,1.1,0.44c0.27,0.29,0.41,0.67,0.41,1.12v2.09c0,0.45-0.14,0.82-0.41,1.12c-0.28,0.29-0.64,0.44-1.1,0.44 C106.55,68.52,106.19,68.37,105.91,68.07z M107.77,67.78c0.19-0.21,0.28-0.48,0.28-0.82v-2.09c0-0.33-0.09-0.61-0.28-0.82 c-0.19-0.21-0.45-0.32-0.77-0.32c-0.32,0-0.58,0.11-0.77,0.32c-0.19,0.21-0.29,0.48-0.29,0.82v2.09c0,0.33,0.1,0.61,0.29,0.82 c0.19,0.21,0.45,0.32,0.77,0.32C107.33,68.09,107.59,67.99,107.77,67.78z"></path> <path d="M110.5,68.34v-4.73c0-0.07,0.02-0.13,0.06-0.17s0.1-0.06,0.17-0.06h0.21c0.13,0,0.22,0.06,0.27,0.17l0.85,1.71 c0.13,0.28,0.29,0.6,0.45,0.98h0.01c0.11-0.27,0.26-0.6,0.45-0.98l0.84-1.71c0.05-0.11,0.15-0.17,0.28-0.17h0.2 c0.16,0,0.24,0.08,0.24,0.23v4.73c0,0.05-0.03,0.08-0.09,0.08h-0.27c-0.06,0-0.09-0.03-0.09-0.08v-3.08c0-0.41,0.01-0.85,0.02-1.32 h-0.01c-0.11,0.23-0.28,0.59-0.49,1.06l-0.75,1.59c-0.06,0.11-0.15,0.17-0.27,0.17h-0.13c-0.13,0-0.22-0.06-0.27-0.17l-0.76-1.59 l-0.48-1.06h-0.02c0.01,0.23,0.02,0.67,0.02,1.32v3.08c0,0.05-0.03,0.08-0.08,0.08h-0.28C110.52,68.42,110.5,68.4,110.5,68.34z"></path> <path d="M119.55,63.77v4.58c0,0.05-0.03,0.08-0.09,0.08h-0.27c-0.06,0-0.09-0.03-0.09-0.08v-4.51h-1.93v4.51 c0,0.05-0.03,0.08-0.08,0.08h-0.28c-0.05,0-0.08-0.03-0.08-0.08v-4.58c0-0.25,0.12-0.37,0.37-0.37h2.08 C119.42,63.4,119.55,63.52,119.55,63.77z"></path> <path d="M121.87,68.08c-0.28-0.29-0.42-0.66-0.42-1.13c0-0.42,0.14-0.76,0.42-1.03c0.28-0.27,0.66-0.4,1.13-0.4h1v-0.66 c0-0.34-0.09-0.61-0.27-0.81c-0.18-0.2-0.43-0.3-0.74-0.3c-0.3,0-0.53,0.09-0.71,0.27s-0.28,0.41-0.3,0.71 c-0.01,0.06-0.04,0.09-0.09,0.09h-0.27c-0.03,0-0.05-0.01-0.06-0.03c-0.02-0.02-0.03-0.04-0.03-0.07c0.03-0.42,0.17-0.75,0.43-1.02 c0.26-0.26,0.6-0.39,1.03-0.39c0.44,0,0.8,0.14,1.07,0.43c0.27,0.29,0.4,0.66,0.4,1.12v2.09c0,0.46-0.13,0.84-0.4,1.13 s-0.62,0.43-1.07,0.43C122.53,68.5,122.15,68.36,121.87,68.08z M123.74,67.78c0.18-0.2,0.27-0.48,0.27-0.83v-1.01h-1 c-0.34,0-0.61,0.09-0.8,0.28s-0.29,0.43-0.29,0.73c0,0.35,0.09,0.63,0.29,0.83s0.46,0.31,0.8,0.31 C123.31,68.08,123.56,67.98,123.74,67.78z"></path> <path d="M128.91,63.4h0.27c0.06,0,0.09,0.03,0.09,0.08v4.87c0,0.05-0.03,0.08-0.09,0.08h-0.27c-0.06,0-0.09-0.03-0.09-0.08v-2.32 h-1.93v2.32c0,0.05-0.03,0.08-0.08,0.08h-0.27c-0.06,0-0.09-0.03-0.09-0.08v-4.87c0-0.05,0.03-0.08,0.08-0.08h0.28 c0.05,0,0.08,0.03,0.08,0.08v2.12h1.93v-2.12C128.82,63.42,128.85,63.4,128.91,63.4z"></path> <path d="M131.42,62.58c-0.06-0.06-0.09-0.14-0.09-0.24c0-0.1,0.03-0.18,0.09-0.24c0.06-0.06,0.14-0.09,0.24-0.09 c0.09,0,0.17,0.03,0.24,0.09c0.06,0.06,0.09,0.14,0.09,0.24c0,0.09-0.03,0.17-0.09,0.24c-0.06,0.06-0.14,0.1-0.24,0.1 C131.56,62.67,131.48,62.64,131.42,62.58z M131.44,68.34v-4.87c0-0.05,0.03-0.08,0.08-0.08h0.28c0.05,0,0.08,0.03,0.08,0.08v4.87 c0,0.05-0.03,0.08-0.08,0.08h-0.28C131.47,68.42,131.44,68.4,131.44,68.34z"></path> <path d="M136.38,63.72c0.26,0.27,0.39,0.63,0.39,1.08v3.55c0,0.05-0.03,0.08-0.08,0.08h-0.28c-0.05,0-0.08-0.03-0.08-0.08v-1.91 h-1.12l-1.05,1.93c-0.02,0.04-0.05,0.06-0.1,0.06h-0.32c-0.03,0-0.06-0.01-0.07-0.03c-0.01-0.02-0.01-0.04,0-0.07l1.1-1.98 c-0.29-0.1-0.53-0.28-0.71-0.54s-0.27-0.57-0.27-0.94c0-0.46,0.15-0.83,0.44-1.12c0.29-0.29,0.67-0.44,1.12-0.44 C135.77,63.31,136.12,63.44,136.38,63.72z M136.33,64.79c0-0.32-0.09-0.58-0.26-0.77c-0.17-0.19-0.41-0.29-0.71-0.29 c-0.33,0-0.6,0.1-0.8,0.31c-0.21,0.21-0.31,0.48-0.31,0.82c0,0.35,0.1,0.63,0.3,0.83c0.2,0.2,0.46,0.31,0.79,0.31h1.01V64.79z"></path> </g> <g> <g> <path class="st0" d="M20.94,54.41c-0.22-0.22-0.33-0.53-0.33-0.92V42.59c0-0.88,0.19-1.66,0.56-2.36c0.38-0.69,0.91-1.23,1.6-1.6 c0.69-0.38,1.48-0.57,2.38-0.57h2.73c0.13,0,0.23,0.04,0.31,0.12c0.08,0.08,0.12,0.17,0.12,0.28v1.88c0,0.11-0.04,0.21-0.12,0.29 c-0.08,0.09-0.18,0.13-0.31,0.13h-2.73c-0.49,0-0.88,0.17-1.17,0.49c-0.29,0.33-0.44,0.77-0.44,1.32v2.05h1.34 c1.33,0,2.35,0.43,3.05,1.3c0.7,0.86,1.05,1.96,1.05,3.3v0.94c0,1.48-0.34,2.61-1.02,3.39c-0.68,0.79-1.71,1.18-3.07,1.18h-3.04 C21.47,54.74,21.16,54.63,20.94,54.41z M24.69,52.03c0.42,0,0.75-0.17,0.99-0.5c0.24-0.33,0.35-0.79,0.35-1.37v-0.94 c0-0.58-0.12-1.04-0.35-1.38c-0.24-0.34-0.57-0.51-0.99-0.51h-1.13v4.69H24.69z"></path> </g> </g> </svg> 